<?xml version="1.0" standalone="no"?>
<!DOCTYPE svg PUBLIC "-//W3C//DTD SVG 1.1//EN" "http://www.w3.org/Graphics/SVG/1.1/DTD/svg11.dtd">
<svg xmlns="http://www.w3.org/2000/svg">
<metadata>Generated by Fontastic.me</metadata>
<defs>
<font id="coinfinans" horiz-adv-x="512">
<font-face font-family="coinfinans" units-per-em="512" ascent="480" descent="-32"/>
<missing-glyph horiz-adv-x="512" />

<glyph glyph-name="chevron" unicode="&#97;" d="M249 113c-9 0-17 3-23 9l-224 215c-13 12-13 33 0 45 12 13 33 14 46 1l201-193 207 193c13 13 34 12 46-1 12-13 12-33-1-46l-230-214c-6-6-14-9-22-9"/>
<glyph glyph-name="coin" unicode="&#98;" d="M256 397c121 0 206-50 206-93 0-45-85-93-206-93-121 0-206 49-206 93 0 43 85 93 206 93z m206-189c0-44-85-93-206-93-31 0-61 4-87 10l0 42c28-5 56-8 87-8 86 0 160 22 206 58z m-342-68c-9 3-18 8-25 12l0 38c8-3 16-7 25-10z m136-76c144 0 256 63 256 144l0 96c0 81-112 144-256 144-144 0-256-63-256-144l0-95c0-82 112-145 256-145z"/>
<glyph glyph-name="exchange" unicode="&#99;" d="M332 505l109-110c9-9 9-25 0-34l-109-110c-5-5-11-7-17-7-6 0-12 2-17 7-10 10-10 25 0 35l67 67-277 0c-13 0-24 11-24 25 0 13 11 24 24 24l277 0-67 68c-10 10-10 25 0 35 9 9 25 9 34 0z m-152-498l-109 110c-9 9-9 25 0 34l109 110c5 5 11 7 17 7 6 0 12-2 17-7 10-10 10-25 0-35l-67-67 277 0c13 0 24-11 24-25 0-13-11-24-24-24l-277 0 67-68c10-10 10-25 0-35-9-9-25-9-34 0z"/>
<glyph glyph-name="first" unicode="&#100;" d="M199 253c0-8 3-17 9-23l215-223c12-13 33-14 45-1 13 12 13 33 1 46l-193 201 193 207c13 13 12 34-1 46-13 13-33 12-46-1l-214-230c-6-6-9-14-9-22z m-110 226c0 16-13 28-29 28-15 0-28-12-28-28l0-450c0-15 13-28 28-28 16 0 29 13 29 28z"/>
<glyph glyph-name="last" unicode="&#101;" d="M313 253c0-8-3-17-9-23l-215-223c-12-13-33-14-45-1-13 12-13 33-1 46l193 201-193 207c-13 13-12 34 1 46 13 13 33 12 46-1l214-230c6-6 9-14 9-22z m110 226c0 16 13 28 29 28 15 0 28-12 28-28l0-450c0-15-13-28-28-28-16 0-29 13-29 28z"/>
<glyph glyph-name="mass" unicode="&#102;" d="M32 82c-5 0-11 2-17 5-15 9-20 28-10 43l109 174c5 8 14 14 24 15 10 1 20-2 27-9l90-92 118 183c6 9 16 15 27 15l80 0c18 0 32-14 32-31 0-18-14-32-32-32l-62 0-130-203c-5-8-14-13-24-14-9-2-19 2-26 9l-91 92-87-140c-6-10-17-15-28-15"/>
<glyph glyph-name="minus" unicode="&#103;" d="M43 208c-24 0-43 18-43 40 0 22 19 40 43 40l426 0c24 0 43-18 43-40 0-22-19-40-43-40z"/>
<glyph glyph-name="next" unicode="&#104;" d="M391 250c0-9-3-17-9-23l-215-224c-12-13-32-13-45 0-13 12-13 33-1 46l193 201-193 207c-12 13-12 34 1 46 13 12 34 12 46-1l214-230c6-6 9-14 9-22"/>
<glyph glyph-name="night" unicode="&#105;" d="M458 260c0-61-23-118-66-161-43-43-100-67-161-67-53 0-102 17-143 50 1 0 2 0 2 0 68 0 164 15 236 86 70 70 85 164 85 232 31-40 47-88 47-140z m-44-184c-48-49-113-76-183-76-70 0-135 27-184 76-3 4-8 8-12 14-4 5-4 12-1 17 3 6 9 9 15 8 11-1 25-2 41-2 62 0 149 14 213 78 78 78 80 190 74 250-1 6 3 12 9 15 5 3 12 2 17-2 4-3 7-6 11-10 49-49 76-114 76-184 0-69-27-135-76-184z m-274 167l-64-34 13 71-52 50 71 10 32 64 31-64 71-10-51-50 12-71z m108 188l-32-16 6 35-26 25 36 5 16 32 15-32 36-5-26-25 6-35z"/>
<glyph glyph-name="plus" unicode="&#106;" d="M213 299l0 170c0 24 19 43 43 43 24 0 43-19 43-43l0-170 170 0c24 0 43-19 43-43 0-24-19-43-43-43l-170 0 0-170c0-24-19-43-43-43-24 0-43 19-43 43l0 170-170 0c-24 0-43 19-43 43 0 24 19 43 43 43z"/>
<glyph glyph-name="previous" unicode="&#107;" d="M112 250c0-9 3-17 9-23l215-224c12-13 33-13 45 0 13 12 14 33 1 46l-193 201 193 207c13 13 12 34-1 46-13 12-33 12-46-1l-214-230c-6-6-9-14-9-22"/>
<glyph glyph-name="report" unicode="&#108;" d="M120 416l128 0c4 0 8-4 8-8l0-80c0-4-4-8-8-8l-128 0c-4 0-8 4-8 8l0 80c0 4 4 8 8 8z m5-178c-10 0-18 8-18 18 0 10 8 18 18 18l262 0c10 0 18-8 18-18 0-10-8-18-18-18z m0-73c-10 0-18 8-18 18 0 10 8 17 18 17l262 0c10 0 18-7 18-17 0-10-8-18-18-18z m-33 312c-5 0-9-4-9-8l0-426c0-4 4-8 9-8l328 0c4 0 9 3 9 8l0 426c0 4-4 8-9 8z m0-477c-25 0-44 19-44 43l0 426c0 24 19 43 44 43l328 0c25 0 44-19 44-43l0-426c0-24-20-43-44-43z"/>
<glyph glyph-name="search" unicode="&#109;" d="M321 143c-33-23-74-37-118-37-112 0-203 91-203 203 0 112 91 203 203 203 112 0 203-91 203-203 0-44-14-85-37-118l133-133c13-14 13-35 0-48l0 0c-13-13-35-13-48 0z m-118 10c86 0 155 70 155 156 0 86-69 155-155 155-86 0-155-69-155-155 0-86 69-156 155-156z"/>
<glyph glyph-name="star" unicode="&#110;" d="M256 128l-150-79 28 167-121 119 168 25 75 152 75-152 168-25-121-119 28-167z"/>
<glyph glyph-name="transaction" unicode="&#111;" d="M505 180l-110-109c-9-9-25-9-34 0l-110 109c-5 5-7 11-7 17 0 6 2 12 7 17 10 10 25 10 35 0l67-67 0 277c0 13 11 24 25 24 13 0 24-11 24-24l0-277 68 67c10 10 25 10 35 0 9-9 9-25 0-34z m-498 152l110 109c9 9 25 9 34 0l110-109c5-5 7-11 7-17 0-6-2-12-7-17-10-10-25-10-35 0l-67 67 0-277c0-13-11-24-25-24-13 0-24 11-24 24l0 277-68-67c-10-10-25-10-35 0-9 9-9 25 0 34z"/>
<glyph glyph-name="success" unicode="&#112;" d="M256 48c115 0 208 93 208 208 0 115-93 208-208 208-115 0-208-93-208-208 0-115 93-208 208-208z m0-48c-141 0-256 115-256 256 0 141 115 256 256 256 141 0 256-115 256-256 0-141-115-256-256-256z m112 368l-158-156-67 70-31-31 98-99 188 185z"/>
<glyph glyph-name="logout" unicode="&#113;" d="M121 132l-114 113c-9 10-9 25 0 35l114 113c5 5 11 7 18 7 6 0 12-2 17-7 10-10 10-26 0-36l-70-69 289 0c14 0 25-12 25-26 0-13-11-25-25-25l-289 0 70-69c10-10 10-26 0-36-9-9-25-9-35 0z m340 380c28 0 51-23 51-51l0-410c0-28-23-51-51-51l-192 0c-12 0-22 10-22 22 0 12 10 22 22 22l192 0c4 0 7 3 7 7l0 410c0 4-3 7-7 7l-192 0c-12 0-22 10-22 22 0 12 10 22 22 22z"/>
<glyph glyph-name="mail" unicode="&#114;" d="M50 125l144 163c19-10 38-19 55-28l7-4 60 32 144-163-409 0c0 0-1 0-1 0z m18 262l370 0-182-97c-60 30-144 73-188 97z m-37-238l0 218c0 2 0 5 1 7 26-15 80-44 134-72z m312 154l136 73c2-3 2-6 2-9l0-221z m118 113l-410 0c-28 0-51-22-51-49l0-222c0-27 23-49 51-49l410 0c28 0 51 22 51 49l0 222c0 27-23 49-51 49z"/>
<glyph glyph-name="warning" unicode="&#115;" d="M512 256c0-141-115-256-256-256-141 0-256 115-256 256 0 141 115 256 256 256 141 0 256-115 256-256z m-48 0c0 115-93 208-208 208-115 0-208-93-208-208 0-115 93-208 208-208 115 0 208 93 208 208z m-232 152l48 0 0-208-48 0z m0-240l48 0 0-64-48 0z"/>
<glyph glyph-name="info" unicode="&#116;" d="M0 256c0 141 115 256 256 256 141 0 256-115 256-256 0-141-115-256-256-256-141 0-256 115-256 256z m48 0c0-115 93-208 208-208 115 0 208 93 208 208 0 115-93 208-208 208-115 0-208-93-208-208z m232-152l-48 0 0 208 48 0z m0 240l-48 0 0 64 48 0z"/>
<glyph glyph-name="sms" unicode="&#117;" d="M363 97l15-97-86 73c-12-1-24-2-36-2-124 0-224 98-224 220 0 122 100 221 224 221 124 0 224-99 224-221 0-84-47-156-117-194z m-107 14c101 0 183 81 183 180 0 100-82 181-183 181-101 0-183-81-183-181 0-99 82-180 183-180z m-81 154c-15 0-28 12-28 26 0 15 13 27 28 27 15 0 27-12 27-27 0-14-12-26-27-26z m81 0c-15 0-27 12-27 26 0 15 12 27 27 27 15 0 27-12 27-27 0-14-12-26-27-26z m81 0c-15 0-27 12-27 26 0 15 12 27 27 27 15 0 28-12 28-27 0-14-13-26-28-26z"/>
<glyph glyph-name="danger" unicode="&#118;" d="M132 88c34-26 77-41 124-41 116 0 209 93 209 209 0 47-15 90-41 124z m-35 31l296 296c-37 31-85 50-137 50-116 0-209-93-209-209 0-52 19-100 50-137z m159-119c-141 0-256 115-256 256 0 141 115 256 256 256 141 0 256-115 256-256 0-141-115-256-256-256z"/>
<glyph glyph-name="circle-check" unicode="&#119;" d="M256 0c-141 0-256 115-256 256 0 141 115 256 256 256 141 0 256-115 256-256 0-141-115-256-256-256z m113 357l-158-156-68 69-30-30 98-100 188 186z"/>
<glyph glyph-name="volume" unicode="&#120;" d="M239 498c19 19 50 19 70 0l0 0c66-62 107-148 107-242 0-95-41-180-107-242-20-19-51-19-71 0-19 18-19 47 0 65 49 46 79 108 79 177 0 69-30 131-78 177-20 18-20 47 0 65z m-42-379c-20-19-51-18-70 0-20 18-20 47 0 65 19 19 31 44 31 72 0 28-12 53-31 72-20 18-20 47 0 65 19 19 50 19 70 0 37-35 60-83 60-137 0-54-23-102-60-137z"/>
<glyph glyph-name="left" unicode="&#121;" d="M154 89c13-12 34-12 46 0 13 13 13 33 0 46l-90 89 370 0c18 0 32 14 32 32 0 18-14 32-32 32l-370 0 90 89c13 13 13 33 0 46-6 6-14 9-23 9-8 0-16-3-23-9l-145-144c-12-13-12-33 0-46z"/>
<glyph glyph-name="right" unicode="&#122;" d="M358 423c-13 12-34 12-46 0-13-13-13-33 0-46l90-89-370 0c-18 0-32-14-32-32 0-18 14-32 32-32l370 0-90-89c-13-13-13-33 0-46 6-6 14-9 23-9 8 0 16 3 23 9l145 144c12 13 12 33 0 46z"/>
<glyph glyph-name="cross" unicode="&#65;" d="M336 256l159-160c23-22 23-57 0-79-22-23-57-23-79 0l-160 159-160-159c-22-23-57-23-79 0-23 22-23 57 0 79l159 160-159 160c-23 22-23 57 0 79 22 23 57 23 79 0l160-159 160 159c22 23 57 23 79 0 23-22 23-57 0-79z"/>
</font>
</defs>
</svg>
